<?xml version="1.0" encoding="UTF-8" standalone="no"?>
<!DOCTYPE svg PUBLIC "-//W3C//DTD SVG 1.1//EN" "http://www.w3.org/Graphics/SVG/1.1/DTD/svg11.dtd">
<svg width="100%" height="100%" viewBox="0 0 100 136" version="1.1" xmlns="http://www.w3.org/2000/svg" xmlns:xlink="http://www.w3.org/1999/xlink" xml:space="preserve" xmlns:serif="http://www.serif.com/" style="fill-rule:evenodd;clip-rule:evenodd;stroke-linecap:round;stroke-linejoin:round;stroke-miterlimit:1.5;">
    <g transform="matrix(1.0892,0,0,1.0892,-1759.436743,-884.193761)">
        <g transform="matrix(0.12432,0,0,0.12432,1434.223751,667.943514)">
            <path d="M1456.915,1316.224L1456.915,1232.08C1456.915,1189.904 1491.157,1155.662 1533.333,1155.662L2118.996,1155.662C2161.173,1155.662 2195.414,1189.904 2195.414,1232.08L2195.414,1316.224C2195.414,1327.585 2188.724,1337.88 2178.342,1342.494L1837.84,1493.822C1830.407,1497.126 1821.923,1497.126 1814.49,1493.822L1473.988,1342.494C1463.606,1337.88 1456.915,1327.585 1456.915,1316.224ZM1514.411,1297.541L1826.165,1436.093L2137.919,1297.541L2137.919,1232.08C2137.919,1221.636 2129.44,1213.157 2118.996,1213.157L1533.333,1213.157C1522.89,1213.157 1514.411,1221.636 1514.411,1232.08L1514.411,1297.541ZM2195.414,1424.647L2195.414,2084.946C2195.414,2127.122 2161.173,2161.364 2118.996,2161.364L1533.333,2161.364C1491.157,2161.364 1456.915,2127.122 1456.915,2084.946L1456.915,1424.647C1456.915,1414.916 1461.838,1405.845 1469.998,1400.542C1478.157,1395.239 1488.446,1394.425 1497.338,1398.377L1825.403,1544.177C1825.642,1544.284 1825.891,1544.344 1826.138,1544.343L1826.192,1544.343C1826.439,1544.344 1826.687,1544.284 1826.927,1544.177L2154.991,1398.377C2163.884,1394.425 2174.172,1395.239 2182.332,1400.542C2190.491,1405.845 2195.414,1414.916 2195.414,1424.647ZM2137.919,1468.882L1850.278,1596.718C1842.434,1600.204 1834.234,1601.843 1826.165,1601.839C1818.096,1601.843 1809.896,1600.204 1802.052,1596.718L1514.411,1468.882L1514.411,2084.946C1514.411,2095.39 1522.89,2103.869 1533.333,2103.869L2118.996,2103.869C2129.44,2103.869 2137.919,2095.39 2137.919,2084.946L2137.919,1468.882Z" style="fill:rgb(242,242,242);"/>
        </g>
        <g transform="matrix(0.081501,0,0,0.081501,1568.302073,766.940812)">
            <path d="M1140.498,1436.003C1339.559,1436.003 1501.171,1603.458 1501.171,1603.458C1501.171,1603.458 1339.559,1770.913 1140.498,1770.913C941.436,1770.913 779.824,1603.458 779.824,1603.458C779.824,1603.458 941.436,1436.003 1140.498,1436.003ZM1138.04,1486.873C1071.922,1486.873 1018.243,1540.552 1018.243,1606.67C1018.243,1672.787 1071.922,1726.467 1138.04,1726.467C1204.158,1726.467 1257.837,1672.787 1257.837,1606.67C1257.837,1540.552 1204.158,1486.873 1138.04,1486.873Z" style="fill:rgb(242,242,242);stroke:black;stroke-opacity:0;stroke-width:689.98px;"/>
            <circle cx="1140.751" cy="1601.383" r="46.979" style="fill:rgb(242,242,242);stroke:black;stroke-opacity:0;stroke-width:689.98px;"/>
        </g>
    </g>
</svg>
