<?xml version="1.0" encoding="UTF-8" standalone="no"?>
<!DOCTYPE svg PUBLIC "-//W3C//DTD SVG 1.1//EN" "http://www.w3.org/Graphics/SVG/1.1/DTD/svg11.dtd">
<svg width="100%" height="100%" viewBox="0 0 100 138" version="1.1" xmlns="http://www.w3.org/2000/svg" xmlns:xlink="http://www.w3.org/1999/xlink" xml:space="preserve" xmlns:serif="http://www.serif.com/" style="fill-rule:evenodd;clip-rule:evenodd;stroke-linejoin:round;stroke-miterlimit:2;">
    <g transform="matrix(0.46905,0,0,0.46905,336.603066,-328.467711)">
        <g transform="matrix(2.462527,0,0,2.251382,-4701.098081,-402.27665)">
            <path d="M1704.212,501.515L1704.212,608.716C1704.212,615.168 1699.423,620.406 1693.524,620.406L1628.324,620.406C1622.425,620.406 1617.636,615.168 1617.636,608.716L1617.636,501.515C1617.636,495.063 1622.425,489.824 1628.324,489.824L1693.524,489.824C1699.423,489.824 1704.212,495.063 1704.212,501.515ZM1699.136,501.515C1699.136,498.127 1696.621,495.377 1693.524,495.377L1628.324,495.377C1625.226,495.377 1622.712,498.127 1622.712,501.515L1622.712,608.716C1622.712,612.103 1625.226,614.854 1628.324,614.854L1693.524,614.854C1696.621,614.854 1699.136,612.103 1699.136,608.716L1699.136,501.515Z" style="fill:rgb(242,242,242);"/>
        </g>
        <g transform="matrix(0.567478,0,0,0.567478,-256.950653,363.583196)">
            <g transform="matrix(0.707107,0.707107,-0.707107,0.707107,757.425701,1335.276219)">
                <path d="M-1311.835,722.237L-1320.042,708.568L-1250.372,703.188L-1287.87,762.152L-1300.3,741.45C-1307.666,742.958 -1315.292,743.751 -1323.102,743.751C-1385.629,743.751 -1436.394,692.986 -1436.394,630.459C-1436.394,624.709 -1431.726,620.042 -1425.977,620.042C-1420.228,620.042 -1415.561,624.709 -1415.561,630.459C-1415.561,681.488 -1374.131,722.918 -1323.102,722.918C-1319.288,722.918 -1315.528,722.686 -1311.835,722.237Z" style="fill:rgb(242,242,242);"/>
            </g>
            <g transform="matrix(0.707107,0.707107,-0.707107,0.707107,757.425701,1335.276219)">
                <path d="M-1345.904,519.468C-1338.537,517.959 -1330.911,517.166 -1323.102,517.166C-1260.574,517.166 -1209.809,567.931 -1209.809,630.459C-1209.809,636.208 -1214.477,640.875 -1220.226,640.875C-1225.975,640.875 -1230.643,636.208 -1230.643,630.459C-1230.643,579.429 -1272.072,538 -1323.102,538C-1326.915,538 -1330.675,538.231 -1334.369,538.68L-1326.162,552.349L-1395.831,557.729L-1358.333,498.765L-1345.904,519.468Z" style="fill:rgb(242,242,242);"/>
            </g>
        </g>
    </g>
</svg>
