<?xml version="1.0" encoding="UTF-8" standalone="no"?>
<!DOCTYPE svg PUBLIC "-//W3C//DTD SVG 1.1//EN" "http://www.w3.org/Graphics/SVG/1.1/DTD/svg11.dtd">
<svg width="100%" height="100%" viewBox="0 0 188 188" version="1.1" xmlns="http://www.w3.org/2000/svg" xmlns:xlink="http://www.w3.org/1999/xlink" xml:space="preserve" xmlns:serif="http://www.serif.com/" style="fill-rule:evenodd;clip-rule:evenodd;stroke-linejoin:round;stroke-miterlimit:2;">
    <g transform="matrix(4.166667,0,0,4.166667,0,0)">
        <g transform="matrix(0.257437,0,0,0.257437,117.992952,-166.776462)">
            <g transform="matrix(2.563234,0,0,2.563234,-2351.474849,-1994.61185)">
                <circle cx="772.671" cy="1065.001" r="30.764" style="fill:rgb(67,62,54);"/>
            </g>
            <g transform="matrix(2.563234,0,0,2.563234,-2351.474849,-1994.61185)">
                <path d="M772.671,1030.904C791.49,1030.904 806.769,1046.182 806.769,1065.001C806.769,1083.82 791.49,1099.099 772.671,1099.099C753.852,1099.099 738.574,1083.82 738.574,1065.001C738.574,1046.182 753.852,1030.904 772.671,1030.904ZM772.671,1034.237C755.692,1034.237 741.907,1048.022 741.907,1065.001C741.907,1081.98 755.692,1095.766 772.671,1095.766C789.651,1095.766 803.436,1081.98 803.436,1065.001C803.436,1048.022 789.651,1034.237 772.671,1034.237Z" style="fill:rgb(242,242,242);"/>
            </g>
            <g transform="matrix(2.258374,0,0,2.258374,-2115.918768,-1669.93626)">
                <path d="M772.671,1033.606C789.999,1033.606 804.066,1047.674 804.066,1065.001C804.066,1082.329 789.999,1096.396 772.671,1096.396C755.344,1096.396 741.276,1082.329 741.276,1065.001C741.276,1047.674 755.344,1033.606 772.671,1033.606ZM772.671,1034.237C755.692,1034.237 741.907,1048.022 741.907,1065.001C741.907,1081.98 755.692,1095.766 772.671,1095.766C789.651,1095.766 803.436,1081.98 803.436,1065.001C803.436,1048.022 789.651,1034.237 772.671,1034.237Z" style="fill:white;"/>
            </g>
            <g transform="matrix(1.998969,0,0,1.928209,-3606.974273,-1305.297594)">
                <path d="M1621.018,1059.078C1621.018,1060.191 1620.147,1061.094 1619.074,1061.094C1618.001,1061.094 1617.129,1060.191 1617.129,1059.078L1617.129,1028.77C1617.129,1027.657 1618.001,1026.754 1619.074,1026.754C1620.147,1026.754 1621.018,1027.657 1621.018,1028.77L1621.018,1059.078Z" style="fill:rgb(242,242,242);"/>
            </g>
            <g transform="matrix(-1.009767,1.725181,-1.664112,-0.974023,3026.81816,-1024.739055)">
                <path d="M1621.018,1059.078C1621.018,1060.191 1620.147,1061.094 1619.074,1061.094C1618.001,1061.094 1617.129,1060.191 1617.129,1059.078L1617.129,1036.176C1617.129,1035.064 1618.001,1034.161 1619.074,1034.161C1620.147,1034.161 1621.018,1035.064 1621.018,1036.176L1621.018,1059.078Z" style="fill:rgb(242,242,242);"/>
            </g>
        </g>
    </g>
</svg>
