<?xml version="1.0" encoding="UTF-8" standalone="no"?>
<!DOCTYPE svg PUBLIC "-//W3C//DTD SVG 1.1//EN" "http://www.w3.org/Graphics/SVG/1.1/DTD/svg11.dtd">
<svg width="100%" height="100%" viewBox="0 0 50 96" version="1.1" xmlns="http://www.w3.org/2000/svg" xmlns:xlink="http://www.w3.org/1999/xlink" xml:space="preserve" xmlns:serif="http://www.serif.com/" style="fill-rule:evenodd;clip-rule:evenodd;stroke-linejoin:round;stroke-miterlimit:2;">
    <g transform="matrix(4.166667,0,0,4.166667,0,0)">
        <g transform="matrix(0.257437,0,0,0.257437,96.332323,-173.543069)">
            <g transform="matrix(1.998969,0,0,1.928209,-3606.974273,-1305.297594)">
                <path d="M1621.018,1059.078C1621.018,1060.191 1620.147,1061.094 1619.074,1061.094C1618.001,1061.094 1617.129,1060.191 1617.129,1059.078L1617.129,1028.77C1617.129,1027.657 1618.001,1026.754 1619.074,1026.754C1620.147,1026.754 1621.018,1027.657 1621.018,1028.77L1621.018,1059.078Z" style="fill:rgb(242,242,242);"/>
            </g>
            <g transform="matrix(-1.009767,1.725181,-1.664112,-0.974023,3026.81816,-1024.739055)">
                <path d="M1621.018,1059.078C1621.018,1060.191 1620.147,1061.094 1619.074,1061.094C1618.001,1061.094 1617.129,1060.191 1617.129,1059.078L1617.129,1036.176C1617.129,1035.064 1618.001,1034.161 1619.074,1034.161C1620.147,1034.161 1621.018,1035.064 1621.018,1036.176L1621.018,1059.078Z" style="fill:rgb(242,242,242);"/>
            </g>
        </g>
    </g>
</svg>
