<?xml version="1.0" encoding="UTF-8" standalone="no"?>
<!DOCTYPE svg PUBLIC "-//W3C//DTD SVG 1.1//EN" "http://www.w3.org/Graphics/SVG/1.1/DTD/svg11.dtd">
<svg width="100%" height="100%" viewBox="0 0 500 428" version="1.1" xmlns="http://www.w3.org/2000/svg" xmlns:xlink="http://www.w3.org/1999/xlink" xml:space="preserve" xmlns:serif="http://www.serif.com/" style="fill-rule:evenodd;clip-rule:evenodd;stroke-linejoin:round;stroke-miterlimit:2;">
    <g transform="matrix(3.516756,0,0,3.516756,-59.055117,530.823519)">
        <path d="M76.492,-72.033L76.491,-72.091L76.491,-72.085C76.491,-72.085 77.116,-72.735 77.558,-72.137C78,-71.539 79.872,-68.497 79.872,-68.497L80.843,-54.456L79.976,-52.619C79.976,-52.619 78.832,-64.545 78.728,-66.313C78.728,-65.689 79.11,-52.341 80.531,-37.157C80.482,-37.035 79.688,-37.236 79.215,-37.368C79.213,-37.431 79.212,-37.482 79.214,-37.503C75.851,-63.193 76.492,-72.033 76.492,-72.033ZM57.854,-81.724L72.748,-91.847C72.748,-91.847 72.722,-92.757 69.862,-94.187C66.403,-95.799 61.463,-95.071 61.463,-95.071L41.598,-87.414L19.965,-56.19L57.858,-81.741L57.854,-81.724ZM134.467,-87.387L134.441,-87.357C134.441,-87.357 119.221,-93.32 115.2,-94.845C111.178,-96.371 107.434,-95.261 105.631,-94.36C103.828,-93.459 103.274,-91.899 103.274,-91.899L117.542,-82.238L117.523,-82.33L155.97,-56.155L134.467,-87.387ZM68.744,-76.679L55.24,-67.682L55.121,-67.881L49.398,-38.89L73.877,-77.98L68.744,-76.679ZM107.252,-76.74L102.272,-77.877L126.658,-38.786L120.6,-67.659L107.252,-76.74ZM96.011,-36.723C95.525,-36.602 95.612,-36.706 95.04,-36.065C94.468,-35.423 93.844,-36.411 93.549,-36.689C93.254,-36.966 92.96,-36.845 92.96,-36.845C92.96,-36.845 90.845,-35.752 87.933,-35.718C85.021,-35.683 82.767,-36.897 82.542,-36.827C81.71,-35.857 81.155,-35.978 80.843,-36.013C80.431,-36.51 79.664,-36.794 79.239,-36.921C79.312,-35.787 79.543,-33.238 79.95,-31.081C80.21,-30.847 83.512,-29.027 88.115,-29.261C92.717,-29.495 95.785,-30.457 95.941,-31.081C96.067,-31.583 96.511,-35.359 96.681,-36.821C96.466,-36.805 96.22,-36.776 96.011,-36.723ZM98.463,-72.163L96.149,-68.523L95.135,-54.326L95.967,-52.688C95.967,-52.688 97.189,-65.247 97.345,-66.235C97.033,-52.74 95.434,-37.412 95.356,-36.97C95.558,-36.927 96.2,-37.106 96.733,-37.274C96.742,-37.354 96.747,-37.399 96.747,-37.399C96.747,-37.399 99.629,-53.498 99.322,-72.254C98.958,-72.656 98.463,-72.163 98.463,-72.163ZM88.175,-62.707L87.985,-57.49L87.759,-62.673L81.45,-68.74C81.45,-68.74 82.368,-57.282 82.368,-56.571C82.16,-56.346 82.074,-55.306 82.126,-54.456C82.178,-53.607 82.854,-52.185 84.605,-51.7C86.459,-51.163 87.118,-52.359 87.27,-52.792C87.421,-53.226 87.551,-53.555 87.924,-53.555C88.297,-53.555 88.522,-52.827 88.99,-52.151C90.169,-50.747 92.301,-52.029 93.237,-53.174C94.173,-54.318 93.584,-56.554 93.584,-56.554L94.398,-68.532L88.175,-62.707ZM80.86,-37.157C80.982,-36.394 81.138,-36.394 81.398,-36.359C81.658,-36.325 82.542,-37.573 82.542,-37.573C82.542,-37.573 82.178,-41.039 82.143,-41.508C82.212,-41.144 83.01,-38.855 83.183,-38.751C83.356,-38.647 83.634,-39.687 83.616,-40.797C82.888,-42.045 80.41,-48.875 80.41,-48.875C80.115,-43.085 80.739,-37.919 80.86,-37.157ZM84.241,-37.815C84.475,-37.607 85.229,-37.62 85.359,-37.815C85.489,-38.01 85.788,-37.854 85.97,-37.62C86.152,-37.386 86.737,-37.633 86.854,-37.763C86.971,-37.893 87.166,-37.737 87.339,-37.646C87.512,-37.555 87.738,-37.438 88.061,-37.412C88.383,-37.373 88.7,-37.555 88.83,-37.737C88.96,-37.919 89.337,-37.607 89.337,-37.607C89.337,-37.607 89.935,-37.542 90.013,-37.677C90.039,-37.811 90.221,-37.828 90.403,-37.867C90.52,-37.607 90.702,-37.672 91.144,-37.724C91.586,-37.776 91.651,-38.062 91.651,-38.062L92.158,-40.857L91.469,-41.69L90.611,-41L90.442,-39.921L90.312,-41.052L89.519,-41.885L88.765,-41.169L87.998,-41.95L87.803,-41.95L87.101,-41.208L86.308,-41.898L85.515,-40.987L85.411,-39.765L85.32,-40.948L84.397,-41.677L83.833,-40.883C83.907,-39.765 84.163,-38.088 84.241,-37.815ZM92.496,-40.831C92.262,-40.064 92.691,-38.946 92.821,-38.738C93.081,-38.881 93.666,-40.883 93.848,-41.403C93.861,-41.091 93.549,-37.503 93.549,-37.503C93.549,-37.503 94.186,-36.788 94.355,-36.528C94.524,-36.268 94.745,-36.238 94.988,-36.619C96.149,-42.236 95.59,-48.875 95.59,-48.875C95.083,-46.63 92.73,-41.599 92.496,-40.831ZM78.52,-120.682C76.856,-122.554 75.218,-124.114 73.762,-124.947C73.658,-124.764 71.292,-120.11 71.292,-120.11L80.765,-114.594C80.731,-114.792 80.722,-114.849 80.722,-114.849C80.722,-114.849 80.834,-117.484 78.52,-120.682ZM109.913,-132.808L114.957,-126.065C114.957,-126.065 115.052,-125.922 115.481,-126.195C115.91,-126.468 139.988,-140.279 139.988,-140.279C139.988,-140.279 140.681,-140.539 140.543,-141.492C140.681,-141.388 140.924,-140.331 140.283,-140.053C139.555,-139.655 115.876,-125.718 115.876,-125.718C115.876,-125.718 115.39,-125.389 115.91,-124.816C116.43,-124.244 117.783,-122.39 117.783,-122.39C117.783,-122.39 117.887,-121.87 118.58,-122.372C119.273,-122.875 130.263,-129.575 132.733,-131.317C135.204,-133.059 140.04,-136.621 141.678,-138.103C143.11,-139.399 143.35,-139.84 143.387,-139.93L143.394,-139.949C143.394,-139.949 143.393,-139.944 143.387,-139.93L143.283,-139.637C143.806,-140.343 144.446,-141.64 144.425,-143.763C144.391,-147.334 140.023,-150.731 139.606,-150.939C139.745,-150.107 140.127,-147.889 139.988,-146.398C139.606,-144.803 138.601,-144.699 132.153,-141.509C125.09,-138.326 111.188,-133.371 109.988,-132.945L109.913,-132.808ZM76,-140.416L76.041,-140.4L81.71,-129.566L79.491,-132.582L67.392,-132.582L69.073,-130.294L66.854,-132.27C66.854,-132.27 66.698,-132.426 66.369,-132.01C66.039,-131.594 61.723,-125.891 61.723,-125.891C61.723,-125.891 61.515,-125.649 62.001,-125.389C62.486,-125.128 70.72,-120.292 70.72,-120.292C70.72,-120.292 70.98,-120.045 71.227,-120.604C71.474,-121.163 73.203,-125.011 73.203,-125.011C73.203,-125.011 73.307,-125.194 73.073,-125.376C72.891,-125.597 72.007,-126.702 72.007,-126.702L73.476,-125.506C73.476,-125.506 73.515,-125.324 74.399,-125.506C75.283,-125.688 83.877,-127.278 84.189,-127.313C84.362,-127.59 84.587,-127.971 84.587,-127.971L84.674,-127.434L88.011,-127.833L91.196,-127.326L91.196,-127.82L91.586,-127.326L102.268,-125.545L103.625,-126.377L102.598,-125.441C102.598,-125.441 102.52,-125.324 102.663,-125.064C102.806,-124.803 104.886,-120.162 104.886,-120.162L114.021,-125.545C114.021,-125.545 114.506,-125.545 114.021,-126.151C113.536,-126.758 109.237,-132.392 109.237,-132.392L106.706,-130.069L108.509,-132.426C108.509,-132.426 108.682,-132.513 107.954,-132.513L96.375,-132.513L94.208,-129.15L96.069,-132.929L96.019,-132.929C96.019,-132.929 98.171,-137.243 99.289,-139.467L99.911,-140.729L99.937,-140.751C100.262,-141.448 99.477,-141.319 99.477,-141.319C99.477,-141.319 94.398,-140.989 91.348,-140.712C88.019,-140.296 84.934,-140.712 84.934,-140.712C84.934,-140.712 77.151,-141.284 76.301,-141.301C75.452,-141.319 75.885,-140.643 75.885,-140.643L76,-140.416ZM96.815,-133.111C96.809,-133.059 96.821,-132.979 96.97,-132.979L108.916,-132.979L109.061,-133.098C118.043,-146.087 118.459,-147.195 118.459,-147.369C112.773,-144.56 107.434,-140.469 106.151,-139.013C104.868,-137.557 102.632,-132.998 102.632,-132.998L101.956,-132.998C104.279,-136.985 105.432,-140.261 105.536,-140.625C100.976,-140.625 97.426,-134.272 96.815,-133.111ZM132.993,-115.118C131.407,-112.388 131.147,-111.504 131.147,-111.504L131.145,-111.481L149.452,-117.103L136.605,-119.674C135.78,-118.817 134.372,-117.236 132.993,-115.118ZM142.499,-137.859L140.534,-136.699C140.534,-136.699 139.754,-132.955 137.102,-128.405C134.45,-123.854 133.357,-120.266 125.583,-113.61C125.531,-113.22 125.57,-113.077 125.856,-112.973C126.142,-112.869 127.507,-112.44 127.507,-112.44C127.507,-112.44 131.017,-115.038 134.472,-120.101L134.424,-120.11C134.424,-120.11 134.527,-120.218 134.725,-120.477C134.911,-120.757 135.097,-121.038 135.282,-121.332C135.296,-121.333 135.307,-121.332 135.321,-121.332C135.958,-122.307 136.927,-123.968 138.22,-126.689C141.267,-133.057 142.21,-136.351 142.499,-137.859ZM158.969,-98.243L130.945,-109.567L130.939,-109.51L127.091,-111.018L105.587,-98.126L158.969,-98.243ZM67.105,-132.994L79.239,-132.994C74.841,-140.827 70.976,-140.677 70.408,-140.677C70.321,-139.949 73.979,-132.998 73.979,-132.998L73.355,-132.998C73.355,-132.998 72.54,-134.723 70.564,-138.077C68.588,-141.431 57.797,-147.412 57.459,-147.542C57.184,-147.042 66.268,-134.041 66.979,-133.025C67.051,-133.006 67.099,-132.994 67.105,-132.994ZM70.304,-98.139L48.896,-111.018L47.517,-110.501L47.552,-110.49L16.792,-98.104L70.333,-98.104L70.304,-98.139ZM44.9,-111.53C44.9,-111.53 42.915,-116.262 39.337,-119.585L26.439,-117.094L45.027,-111.279L44.9,-111.53ZM34.404,-138.06C36.086,-136.691 40.948,-132.721 46.876,-128.951C52.805,-125.18 57.823,-122.216 57.823,-122.216C57.823,-122.216 58.031,-122.06 58.408,-122.58C58.785,-123.1 60.267,-124.947 60.267,-124.947C60.267,-124.947 60.631,-125.545 60.072,-125.818C59.513,-126.091 36.224,-139.811 36.224,-139.811C36.224,-139.811 35.124,-140.378 35.189,-141.028C35.254,-141.34 35.449,-141.483 35.449,-141.483C35.449,-141.483 35.34,-140.608 36.311,-140.088C37.282,-139.568 60.822,-126.03 60.822,-126.03C60.822,-126.03 61.03,-125.961 61.325,-126.342C61.614,-126.716 65.98,-132.487 66.136,-132.694C65.999,-132.681 65.923,-132.711 65.987,-132.825C44.666,-140.261 38.894,-143.876 37.048,-144.89C35.202,-145.904 36.398,-150.939 36.398,-150.939C33.485,-148.825 32.107,-146.242 31.795,-145.046C31.144,-142.664 32.275,-140.527 32.873,-139.622C33.243,-139.148 33.745,-138.597 34.404,-138.06ZM70.239,-119.967C69.784,-120.162 61.385,-124.868 61.385,-124.868C61.385,-124.868 60.995,-125.076 60.683,-124.556C60.371,-124.036 58.707,-121.748 58.707,-121.748C58.707,-121.748 58.291,-120.656 59.409,-120.162C60.475,-119.691 79.747,-109.656 81.556,-108.714C81.516,-109.462 81.454,-110.332 81.363,-111.348C81.112,-112.689 80.957,-113.527 80.863,-114.046L71.266,-119.33C71.266,-119.33 71.045,-119.512 70.824,-119.031C70.603,-118.55 69.992,-117.601 69.81,-116.86C69.758,-117.172 70.109,-118.602 70.694,-119.486C70.694,-119.59 70.694,-119.772 70.239,-119.967ZM48.176,-112.622C48.41,-112.44 48.566,-112.44 49.242,-112.648C49.919,-112.856 51.089,-112.986 50.543,-113.48C49.996,-113.974 47.63,-115.855 45.204,-118.801C42.777,-121.748 39.587,-126.637 37.784,-130.658C35.982,-134.68 35.445,-136.656 35.445,-136.656L33.565,-137.789C36.461,-127.311 41.65,-120.032 41.65,-120.032L41.643,-120.031C42.833,-118.34 45.034,-115.499 48.176,-112.622ZM117.262,-121.878C116.378,-123.048 114.974,-124.894 114.974,-124.894C114.974,-124.894 114.87,-125.103 114.246,-124.686C113.622,-124.27 105.328,-119.72 105.328,-119.72C105.328,-119.72 106.212,-117.432 106.238,-116.964C106.056,-117.25 104.886,-119.46 104.886,-119.46L95.161,-114.208L95.161,-114.21L95.069,-114.162C95.032,-113.946 94.994,-113.721 94.953,-113.48C94.726,-112.329 94.452,-110.27 94.323,-108.743C94.469,-108.817 94.669,-108.92 94.669,-108.92L116.17,-119.928C116.17,-119.928 117.991,-120.526 117.262,-121.878ZM95.36,-114.716L95.36,-114.716L104.695,-120.102L102.216,-125.007C102.216,-125.007 97.891,-121.852 96.435,-119.33C95.804,-117.951 95.669,-117.634 95.145,-114.604C95.256,-114.663 95.36,-114.716 95.36,-114.716ZM99.6,-109.034L98.576,-108.106C98.576,-108.106 100.552,-106.927 100.916,-106.667C101.28,-106.407 101.428,-106.685 101.428,-106.685L103.031,-108.522L103.037,-108.702C102.825,-108.689 102.78,-108.67 102.78,-108.67C102.78,-108.67 100.309,-108.696 99.633,-109.034C99.622,-109.034 99.611,-109.034 99.6,-109.034ZM80.002,-119.122C81.146,-116.444 81.926,-113.792 82.082,-108.644C82.082,-106.615 82.03,-104.925 81.341,-104.067C81.474,-104.497 81.714,-105.378 81.571,-108.397L79.036,-108.955C78.904,-108.902 78.746,-108.772 78.867,-108.453C79.456,-107.742 79.63,-105.853 79.266,-103.894C78.902,-101.935 77.22,-97.844 77.22,-97.844L82.975,-94.256L92.942,-94.256L98.853,-97.827C98.853,-97.827 97.883,-99.907 96.877,-102.889C95.924,-106.217 96.895,-107.967 97.172,-108.453C97.332,-108.732 97.158,-108.894 96.982,-108.983C96.793,-108.968 96.721,-108.956 96.721,-108.956L94.577,-108.531L94.3,-108.471C94.283,-108.239 94.269,-108.023 94.26,-107.829C94.225,-106.615 94.433,-104.778 94.641,-104.206C94.416,-104.483 93.809,-106.373 93.93,-108.834C94.052,-111.296 94.551,-116.074 95.359,-117.88C96.167,-119.686 96.843,-121.28 99.408,-123.239C101.835,-125.18 102.199,-125.198 101.523,-125.319C100.847,-125.441 91.642,-127.001 91.642,-127.001L87.985,-100.635L84.267,-127.053L74.013,-125.163C74.013,-125.163 78.858,-121.8 80.002,-119.122ZM104.245,-108.697C104.245,-108.697 104.244,-108.696 104.244,-108.696C104.227,-108.626 103.014,-107.482 102.372,-106.997C101.731,-106.511 101.948,-106.407 101.948,-106.407C101.948,-106.407 103.69,-105.705 105.77,-105.497C109.878,-105.367 111.282,-106.641 113.466,-108.852C115.988,-112.154 114.909,-117.055 114.909,-117.055L114.782,-117.191L112.92,-114.572C112.92,-114.572 111.672,-107.655 104.288,-108.696C104.273,-108.696 104.26,-108.696 104.245,-108.697ZM60.978,-115.768C60.77,-112.318 61.186,-111.521 61.775,-110.082C63.405,-106.702 66.109,-106.026 68.432,-105.534C71.495,-104.99 74.1,-106.529 74.1,-106.529L71.807,-108.652C71.661,-108.654 71.516,-108.656 71.361,-108.661C68.796,-108.678 66.143,-108.713 64.098,-112.041C63.491,-113.272 63.075,-114.555 63.075,-114.555L61.024,-117.166C61.014,-116.827 60.999,-116.375 60.978,-115.768ZM72.941,-108.65L72.939,-108.591C72.939,-108.591 74.152,-107.239 74.499,-106.823C74.845,-106.407 74.932,-106.65 74.932,-106.65L77.341,-108.141L76.393,-108.989L76.249,-108.99C76.249,-108.99 75.314,-108.689 72.941,-108.65ZM87.958,-105.237L91.183,-127.053L87.92,-127.521L84.657,-127.053L87.958,-105.237ZM66.733,-114.953C66.733,-114.953 66.629,-113.15 67.704,-112.076C69.888,-109.545 73.181,-111.798 73.181,-111.798L74.187,-111.279L74.464,-111.833L66.455,-115.959L65.901,-115.432L66.733,-114.953ZM101.87,-111.4L102.832,-111.712C102.832,-111.712 104.99,-110.594 106.238,-110.88C109.202,-111.504 109.332,-114.936 109.332,-114.936L110.034,-115.534L109.462,-115.898C109.462,-115.898 101.506,-111.868 101.428,-111.816L101.87,-111.4ZM38.088,-131.785C45.238,-118.316 49.658,-115.352 51.245,-114.182C53.273,-112.934 53.377,-117.9 53.481,-119.044C53.585,-120.188 53.065,-120.916 52.285,-121.696C50.985,-122.58 38.426,-132.695 38.426,-132.695C37.841,-132.669 37.984,-132.019 38.088,-131.785ZM137.44,-132.565L123.711,-121.592C123.711,-121.592 122.341,-120.396 122.549,-118.593C122.757,-116.791 122.896,-112.353 125.462,-114.607C128.027,-116.86 132.395,-120.882 137.942,-131.872C138.081,-132.184 138.22,-132.738 137.44,-132.565ZM87.551,-80.284C87.551,-80.284 86.009,-81.413 84.795,-80.277C84.773,-80.219 84.753,-80.172 84.736,-80.131C84.949,-76.639 85.426,-76.222 85.87,-75.778C87.291,-78.066 87.638,-80.215 87.638,-80.215C87.638,-80.215 87.652,-80.213 87.672,-80.21C87.6,-80.251 87.551,-80.284 87.551,-80.284ZM84.743,-80.562C84.743,-80.562 83.322,-82.053 82.94,-82.417C82.559,-82.781 81.814,-83.058 81.588,-82.313C81.56,-82.22 81.536,-82.158 81.514,-82.109C80.928,-78.727 82.251,-75.466 82.251,-75.466C82.251,-75.466 82.438,-75.396 82.472,-75.535C83.216,-78.217 84.743,-80.562 84.743,-80.562ZM90.793,-80.547C90.586,-80.684 90.347,-80.762 90.1,-80.78C89.666,-80.81 89.002,-80.758 88.365,-80.321C88.355,-80.26 88.335,-80.216 88.311,-80.179C88.317,-80.18 88.325,-80.18 88.331,-80.18C88.331,-79.21 89.822,-76.159 90.169,-75.639C90.858,-76.225 91.204,-79.549 91.106,-80.406C91.013,-80.444 90.899,-80.477 90.793,-80.547ZM94.502,-81.567C94.502,-81.567 94.433,-82.971 93.705,-82.85C93.067,-82.719 91.672,-81.006 91.268,-80.52C91.233,-80.479 91.237,-80.421 91.275,-80.382C92.23,-79.423 93.436,-75.968 93.67,-75.431C94.454,-76.821 94.555,-79.885 94.526,-81.526L94.502,-81.567ZM125.817,-112.388C124.413,-112.882 121.085,-114.052 121.085,-114.052L117.315,-119.278C117.315,-119.278 117.223,-119.72 116.794,-119.278C116.365,-118.836 115.156,-117.718 115.156,-117.718L115.108,-117.65C115.128,-117.623 115.147,-117.592 115.165,-117.553C115.824,-116.288 115.633,-114.52 115.512,-112.318C114.662,-108.331 112.513,-106.581 109.635,-105.558C106.758,-104.535 103.846,-105.437 102.962,-105.645C102.078,-105.853 102.13,-106.03 101.428,-106.056C100.192,-105.653 99.724,-102.351 99.581,-102.078C99.646,-104.288 100.023,-105.133 100.452,-105.731C101.012,-106.29 100.661,-106.459 100.661,-106.459L99.516,-107.122C99.516,-107.122 98.247,-107.933 98.039,-107.898C97.917,-107.759 97.241,-106.425 97.311,-104.082C97.415,-101.565 98.957,-97.983 98.957,-97.983L99.75,-98.477L99.75,-97.255C99.75,-97.255 94.745,-93.719 94.355,-93.433C93.965,-93.004 94.55,-92.822 94.55,-92.822L99.451,-95.734L99.451,-95.279C99.451,-95.279 92.587,-90.988 91.885,-90.572C91.183,-90.156 90.247,-90.026 87.92,-89.896C85.593,-89.766 84.058,-90.546 84.058,-90.546L76.531,-95.162L76.505,-95.734C76.505,-95.734 81.081,-92.913 81.419,-92.705C81.757,-92.497 81.692,-93.134 81.692,-93.134L76.215,-97.134L76.128,-98.538L77.064,-97.957C77.064,-97.957 77.237,-98.642 78.191,-102.022C79.3,-105.853 77.74,-107.898 77.74,-107.898L75.383,-106.633C75.383,-106.633 74.984,-106.459 75.001,-106.303C76.596,-104.362 76.284,-102.49 76.215,-101.918C75.729,-104.882 74.603,-105.87 74.239,-106.13C72.28,-105.229 70.564,-105.159 68.102,-105.229C61.983,-106.39 61.134,-110.585 60.7,-112.301C60.357,-113.661 60.482,-116.572 60.548,-117.758L58.915,-119.408L55.049,-114.295L49.45,-112.102C49.45,-112.102 48.904,-111.738 49.658,-111.244C50.29,-110.83 67.161,-100.939 72.635,-97.731L74.412,-96.735L75.478,-87.348C75.478,-87.348 76.57,-86.456 76.908,-86.126C75.92,-77.598 77.48,-73.931 77.662,-73.871C79.664,-79.426 81.328,-82.304 81.328,-82.304L81.536,-82.59L80.652,-83.855C80.652,-83.855 80.479,-84.15 80.254,-83.561C80.028,-82.971 79.422,-81.897 79.422,-81.897C79.422,-81.897 79.872,-83.959 80.098,-84.427C80.08,-84.601 79.127,-85.658 77.428,-86.057C77.428,-86.057 83.998,-85.814 88.123,-85.623C91.902,-85.658 95.04,-85.953 98.368,-86.091C98.073,-85.988 96.028,-84.999 95.889,-84.479C96.028,-84.063 96.617,-81.793 96.617,-81.793L95.508,-83.873C95.508,-83.873 95.387,-84.063 95.127,-83.63C94.859,-83.221 94.517,-82.891 94.546,-82.493C95.538,-80.985 97.981,-74.816 98.42,-73.871C100.015,-77.719 98.94,-86.178 98.94,-86.178L100.327,-87.253L101.61,-96.908L103.638,-98.122L103.774,-98.122L113.432,-103.79L126.259,-111.218C126.259,-111.218 127.221,-111.894 125.817,-112.388Z" style="fill:rgb(65,61,55);fill-rule:nonzero;"/>
    </g>
</svg>
