<?xml version="1.0" encoding="UTF-8" standalone="no"?>
<!DOCTYPE svg PUBLIC "-//W3C//DTD SVG 1.1//EN" "http://www.w3.org/Graphics/SVG/1.1/DTD/svg11.dtd">
<svg width="100%" height="100%" viewBox="0 0 45 45" version="1.1" xmlns="http://www.w3.org/2000/svg" xmlns:xlink="http://www.w3.org/1999/xlink" xml:space="preserve" xmlns:serif="http://www.serif.com/" style="fill-rule:evenodd;clip-rule:evenodd;stroke-linejoin:round;stroke-miterlimit:2;">
    <g transform="matrix(0.105748,0,0,0.105748,146.351893,-227.286239)">
        <g transform="matrix(1,0,0,1,2.043719,134.166081)">
            <circle cx="-1173.242" cy="2227.923" r="189.815" style="fill:rgb(67,62,54);"/>
        </g>
        <g transform="matrix(1,0,0,1,2.043719,134.166081)">
            <path d="M-1173.242,2015.153C-1055.811,2015.153 -960.472,2110.492 -960.472,2227.923C-960.472,2345.354 -1055.811,2440.693 -1173.242,2440.693C-1290.673,2440.693 -1386.012,2345.354 -1386.012,2227.923C-1386.012,2110.492 -1290.673,2015.153 -1173.242,2015.153ZM-1173.242,2038.109C-1278.003,2038.109 -1363.057,2123.162 -1363.057,2227.923C-1363.057,2332.685 -1278.003,2417.738 -1173.242,2417.738C-1068.481,2417.738 -983.427,2332.685 -983.427,2227.923C-983.427,2123.162 -1068.481,2038.109 -1173.242,2038.109Z" style="fill:rgb(242,242,242);"/>
        </g>
        <g transform="matrix(0.961554,-0.555153,0.555153,0.961554,-1334.710939,-573.010671)">
            <g transform="matrix(0.32854,0,0,0.32854,-704.21377,1741.65309)">
                <path d="M-1675.092,1887.218L-1273.698,1887.218L-1273.698,1921.384L-1675.092,1921.384L-1675.092,1955.551L-1777.592,1904.301L-1675.092,1853.051L-1675.092,1887.218ZM-1273.698,1955.551L-1273.698,1853.051L-1171.198,1904.301L-1273.698,1955.551Z" style="fill:rgb(242,242,242);"/>
            </g>
            <g transform="matrix(0.32854,0,0,0.25475,-694.439371,1888.626265)">
                <path d="M-1872.666,1746.498C-1872.666,1734.338 -1865.011,1724.466 -1855.582,1724.466C-1846.154,1724.466 -1838.499,1734.338 -1838.499,1746.498L-1838.499,2011.424C-1838.499,2023.583 -1846.154,2033.455 -1855.582,2033.455C-1865.011,2033.455 -1872.666,2023.583 -1872.666,2011.424L-1872.666,1746.498Z" style="fill:rgb(242,242,242);"/>
            </g>
            <g transform="matrix(0.32854,0,0,0.25475,-464.042824,1888.626265)">
                <path d="M-1872.666,1746.498C-1872.666,1734.338 -1865.011,1724.466 -1855.582,1724.466C-1846.154,1724.466 -1838.499,1734.338 -1838.499,1746.498L-1838.499,2011.424C-1838.499,2023.583 -1846.154,2033.455 -1855.582,2033.455C-1865.011,2033.455 -1872.666,2023.583 -1872.666,2011.424L-1872.666,1746.498Z" style="fill:rgb(242,242,242);"/>
            </g>
        </g>
        <g transform="matrix(0.429136,-0.247762,0.247762,0.429136,-1168.673465,1178.315892)">
            <path d="M-986.384,1927.021C-982.912,1927.021 -976.175,1930.328 -976.175,1937.438C-976.175,1944.547 -982.912,1947.854 -986.384,1947.854L-1387.237,1947.854C-1392.986,1947.854 -1397.654,1943.187 -1397.654,1937.438C-1397.654,1931.688 -1392.986,1927.021 -1387.237,1927.021L-986.384,1927.021Z" style="fill:rgb(242,242,242);"/>
            <g transform="matrix(1,0,0,1,0.96692,0)">
                <path d="M-1355.273,1937.438C-1355.273,1931.688 -1350.605,1927.021 -1344.856,1927.021C-1339.107,1927.021 -1334.44,1931.688 -1334.44,1937.438L-1334.44,1996.032C-1334.44,2001.781 -1339.107,2006.449 -1344.856,2006.449C-1350.605,2006.449 -1355.273,2001.781 -1355.273,1996.032L-1355.273,1937.438Z" style="fill:rgb(242,242,242);"/>
            </g>
            <g transform="matrix(1,0,0,1,64.798464,0)">
                <path d="M-1355.273,1937.438C-1355.273,1931.688 -1350.605,1927.021 -1344.856,1927.021C-1339.107,1927.021 -1334.44,1931.688 -1334.44,1937.438L-1334.44,1996.032C-1334.44,2001.781 -1339.107,2006.449 -1344.856,2006.449C-1350.605,2006.449 -1355.273,2001.781 -1355.273,1996.032L-1355.273,1937.438Z" style="fill:rgb(242,242,242);"/>
            </g>
            <g transform="matrix(1,0,0,1,128.630008,0)">
                <path d="M-1355.273,1937.438C-1355.273,1931.688 -1350.605,1927.021 -1344.856,1927.021C-1339.107,1927.021 -1334.44,1931.688 -1334.44,1937.438L-1334.44,1996.032C-1334.44,2001.781 -1339.107,2006.449 -1344.856,2006.449C-1350.605,2006.449 -1355.273,2001.781 -1355.273,1996.032L-1355.273,1937.438Z" style="fill:rgb(242,242,242);"/>
            </g>
            <g transform="matrix(1,0,0,1,192.461552,0)">
                <path d="M-1355.273,1937.438C-1355.273,1931.688 -1350.605,1927.021 -1344.856,1927.021C-1339.107,1927.021 -1334.44,1931.688 -1334.44,1937.438L-1334.44,1996.032C-1334.44,2001.781 -1339.107,2006.449 -1344.856,2006.449C-1350.605,2006.449 -1355.273,2001.781 -1355.273,1996.032L-1355.273,1937.438Z" style="fill:rgb(242,242,242);"/>
            </g>
            <g transform="matrix(1,0,0,1,256.293096,0)">
                <path d="M-1355.273,1937.438C-1355.273,1931.688 -1350.605,1927.021 -1344.856,1927.021C-1339.107,1927.021 -1334.44,1931.688 -1334.44,1937.438L-1334.44,1996.032C-1334.44,2001.781 -1339.107,2006.449 -1344.856,2006.449C-1350.605,2006.449 -1355.273,2001.781 -1355.273,1996.032L-1355.273,1937.438Z" style="fill:rgb(242,242,242);"/>
            </g>
            <g transform="matrix(1,0,0,1,320.124641,0)">
                <path d="M-1355.273,1937.438C-1355.273,1931.688 -1350.605,1927.021 -1344.856,1927.021C-1339.107,1927.021 -1334.44,1931.688 -1334.44,1937.438L-1334.44,1996.032C-1334.44,2001.781 -1339.107,2006.449 -1344.856,2006.449C-1350.605,2006.449 -1355.273,2001.781 -1355.273,1996.032L-1355.273,1937.438Z" style="fill:rgb(242,242,242);"/>
            </g>
        </g>
        <g transform="matrix(5.497865,0,0,5.497865,-5419.24056,-3493.143407)">
            <path d="M772.671,1033.606C789.999,1033.606 804.066,1047.674 804.066,1065.001C804.066,1082.329 789.999,1096.396 772.671,1096.396C755.344,1096.396 741.276,1082.329 741.276,1065.001C741.276,1047.674 755.344,1033.606 772.671,1033.606ZM772.671,1034.237C755.692,1034.237 741.907,1048.022 741.907,1065.001C741.907,1081.98 755.692,1095.766 772.671,1095.766C789.651,1095.766 803.436,1081.98 803.436,1065.001C803.436,1048.022 789.651,1034.237 772.671,1034.237Z" style="fill:white;"/>
        </g>
    </g>
</svg>
