<?xml version="1.0" encoding="UTF-8" standalone="no"?>
<!DOCTYPE svg PUBLIC "-//W3C//DTD SVG 1.1//EN" "http://www.w3.org/Graphics/SVG/1.1/DTD/svg11.dtd">
<svg width="100%" height="100%" viewBox="0 0 31 13" version="1.1" xmlns="http://www.w3.org/2000/svg" xmlns:xlink="http://www.w3.org/1999/xlink" xml:space="preserve" xmlns:serif="http://www.serif.com/" style="fill-rule:evenodd;clip-rule:evenodd;stroke-linejoin:round;stroke-miterlimit:2;">
    <g transform="matrix(0.115553,0,0,0.115553,149.965717,-265.263071)">
        <g transform="matrix(1.110307,0,-0,1.110307,156.347208,-265.145057)">
            <g transform="matrix(0.32854,0,0,0.32854,-704.21377,1741.65309)">
                <path d="M-1675.092,1887.218L-1273.698,1887.218L-1273.698,1921.384L-1675.092,1921.384L-1675.092,1955.551L-1777.592,1904.301L-1675.092,1853.051L-1675.092,1887.218ZM-1273.698,1955.551L-1273.698,1853.051L-1171.198,1904.301L-1273.698,1955.551Z" style="fill:rgb(242,242,242);"/>
            </g>
            <g transform="matrix(0.32854,0,0,0.25475,-694.439371,1888.626265)">
                <path d="M-1872.666,1746.498C-1872.666,1734.338 -1865.011,1724.466 -1855.582,1724.466C-1846.154,1724.466 -1838.499,1734.338 -1838.499,1746.498L-1838.499,2011.424C-1838.499,2023.583 -1846.154,2033.455 -1855.582,2033.455C-1865.011,2033.455 -1872.666,2023.583 -1872.666,2011.424L-1872.666,1746.498Z" style="fill:rgb(242,242,242);"/>
            </g>
            <g transform="matrix(0.32854,0,0,0.25475,-464.042824,1888.626265)">
                <path d="M-1872.666,1746.498C-1872.666,1734.338 -1865.011,1724.466 -1855.582,1724.466C-1846.154,1724.466 -1838.499,1734.338 -1838.499,1746.498L-1838.499,2011.424C-1838.499,2023.583 -1846.154,2033.455 -1855.582,2033.455C-1865.011,2033.455 -1872.666,2023.583 -1872.666,2011.424L-1872.666,1746.498Z" style="fill:rgb(242,242,242);"/>
            </g>
        </g>
        <g transform="matrix(0.495523,0,0,0.495523,-575.523403,1341.821038)">
            <path d="M-986.384,1927.021C-982.912,1927.021 -976.175,1930.328 -976.175,1937.438C-976.175,1944.547 -982.912,1947.854 -986.384,1947.854L-1387.237,1947.854C-1392.986,1947.854 -1397.654,1943.187 -1397.654,1937.438C-1397.654,1931.688 -1392.986,1927.021 -1387.237,1927.021L-986.384,1927.021Z" style="fill:rgb(242,242,242);"/>
            <g transform="matrix(1,0,0,1,0.96692,0)">
                <path d="M-1355.273,1937.438C-1355.273,1931.688 -1350.605,1927.021 -1344.856,1927.021C-1339.107,1927.021 -1334.44,1931.688 -1334.44,1937.438L-1334.44,1996.032C-1334.44,2001.781 -1339.107,2006.449 -1344.856,2006.449C-1350.605,2006.449 -1355.273,2001.781 -1355.273,1996.032L-1355.273,1937.438Z" style="fill:rgb(242,242,242);"/>
            </g>
            <g transform="matrix(1,0,0,1,64.798464,0)">
                <path d="M-1355.273,1937.438C-1355.273,1931.688 -1350.605,1927.021 -1344.856,1927.021C-1339.107,1927.021 -1334.44,1931.688 -1334.44,1937.438L-1334.44,1996.032C-1334.44,2001.781 -1339.107,2006.449 -1344.856,2006.449C-1350.605,2006.449 -1355.273,2001.781 -1355.273,1996.032L-1355.273,1937.438Z" style="fill:rgb(242,242,242);"/>
            </g>
            <g transform="matrix(1,0,0,1,128.630008,0)">
                <path d="M-1355.273,1937.438C-1355.273,1931.688 -1350.605,1927.021 -1344.856,1927.021C-1339.107,1927.021 -1334.44,1931.688 -1334.44,1937.438L-1334.44,1996.032C-1334.44,2001.781 -1339.107,2006.449 -1344.856,2006.449C-1350.605,2006.449 -1355.273,2001.781 -1355.273,1996.032L-1355.273,1937.438Z" style="fill:rgb(242,242,242);"/>
            </g>
            <g transform="matrix(1,0,0,1,192.461552,0)">
                <path d="M-1355.273,1937.438C-1355.273,1931.688 -1350.605,1927.021 -1344.856,1927.021C-1339.107,1927.021 -1334.44,1931.688 -1334.44,1937.438L-1334.44,1996.032C-1334.44,2001.781 -1339.107,2006.449 -1344.856,2006.449C-1350.605,2006.449 -1355.273,2001.781 -1355.273,1996.032L-1355.273,1937.438Z" style="fill:rgb(242,242,242);"/>
            </g>
            <g transform="matrix(1,0,0,1,256.293096,0)">
                <path d="M-1355.273,1937.438C-1355.273,1931.688 -1350.605,1927.021 -1344.856,1927.021C-1339.107,1927.021 -1334.44,1931.688 -1334.44,1937.438L-1334.44,1996.032C-1334.44,2001.781 -1339.107,2006.449 -1344.856,2006.449C-1350.605,2006.449 -1355.273,2001.781 -1355.273,1996.032L-1355.273,1937.438Z" style="fill:rgb(242,242,242);"/>
            </g>
            <g transform="matrix(1,0,0,1,320.124641,0)">
                <path d="M-1355.273,1937.438C-1355.273,1931.688 -1350.605,1927.021 -1344.856,1927.021C-1339.107,1927.021 -1334.44,1931.688 -1334.44,1937.438L-1334.44,1996.032C-1334.44,2001.781 -1339.107,2006.449 -1344.856,2006.449C-1350.605,2006.449 -1355.273,2001.781 -1355.273,1996.032L-1355.273,1937.438Z" style="fill:rgb(242,242,242);"/>
            </g>
        </g>
    </g>
</svg>
