<?xml version="1.0" encoding="UTF-8" standalone="no"?>
<!DOCTYPE svg PUBLIC "-//W3C//DTD SVG 1.1//EN" "http://www.w3.org/Graphics/SVG/1.1/DTD/svg11.dtd">
<svg width="100%" height="100%" viewBox="0 0 892 246" version="1.1" xmlns="http://www.w3.org/2000/svg" xmlns:xlink="http://www.w3.org/1999/xlink" xml:space="preserve" xmlns:serif="http://www.serif.com/" style="fill-rule:evenodd;clip-rule:evenodd;stroke-linejoin:round;stroke-miterlimit:2;">
    <g transform="matrix(4.166667,0,0,4.166667,0,0)">
        <g transform="matrix(3.176781,0,0,3.176781,71.758196,54.651579)">
            <path d="M38.623,-12.915L18.18,-12.915L18.18,-14.896C18.18,-15.113 15.523,-16.053 15.523,-16.053C12.681,-17.039 9.506,-17.039 6.665,-16.053C6.665,-16.053 4.007,-15.113 4.007,-14.896L4.007,-12.915L-16.436,-12.915L-22.105,-8.086L-16.436,-3.257L6.664,-3.257C7.814,-1.648 9.296,-0.208 11.094,0.958C12.891,-0.208 14.373,-1.648 15.523,-3.257L38.623,-3.257L44.292,-8.086L38.623,-12.915Z" style="fill:rgb(67,62,54);fill-rule:nonzero;"/>
        </g>
        <g transform="matrix(3.176781,0,0,3.176781,71.758196,54.651579)">
            <path d="M38.89,-13.228L44.559,-8.399C44.651,-8.321 44.704,-8.206 44.704,-8.086C44.704,-7.965 44.651,-7.851 44.559,-7.773L38.89,-2.944C38.815,-2.881 38.721,-2.846 38.623,-2.846L15.733,-2.846C14.572,-1.266 13.096,0.15 11.317,1.303C11.181,1.391 11.006,1.391 10.87,1.303C9.091,0.15 7.615,-1.266 6.454,-2.846L-16.436,-2.846C-16.534,-2.846 -16.628,-2.881 -16.703,-2.944L-22.372,-7.773C-22.464,-7.851 -22.517,-7.965 -22.517,-8.086C-22.517,-8.206 -22.464,-8.321 -22.372,-8.399L-16.703,-13.228C-16.628,-13.291 -16.534,-13.326 -16.436,-13.326L3.596,-13.326L3.596,-14.896L3.626,-15.057L3.675,-15.151L3.745,-15.235C3.805,-15.294 3.925,-15.377 4.095,-15.465C4.79,-15.824 6.527,-16.44 6.527,-16.44L6.53,-16.441C9.458,-17.458 12.729,-17.458 15.657,-16.441L15.66,-16.44C15.66,-16.44 17.397,-15.824 18.093,-15.465C18.262,-15.377 18.382,-15.294 18.442,-15.235L18.512,-15.151L18.561,-15.057L18.591,-14.896L18.591,-13.326L38.623,-13.326C38.721,-13.326 38.815,-13.291 38.89,-13.228ZM17.769,-14.687L15.386,-15.665C12.632,-16.62 9.556,-16.62 6.802,-15.665L4.418,-14.687L4.418,-12.915C4.418,-12.688 4.234,-12.504 4.007,-12.504L-16.285,-12.504L-21.471,-8.086L-16.285,-3.668L6.664,-3.668C6.797,-3.668 6.922,-3.604 6.999,-3.496C8.072,-1.995 9.441,-0.645 11.094,0.465C12.746,-0.645 14.115,-1.995 15.188,-3.496C15.266,-3.604 15.39,-3.668 15.523,-3.668L38.472,-3.668L43.658,-8.086L38.472,-12.504L18.18,-12.504C17.953,-12.504 17.769,-12.688 17.769,-12.915L17.769,-14.687Z" style="fill:rgb(242,242,242);"/>
        </g>
    </g>
</svg>
