<?xml version="1.0" encoding="UTF-8" standalone="no"?>
<!DOCTYPE svg PUBLIC "-//W3C//DTD SVG 1.1//EN" "http://www.w3.org/Graphics/SVG/1.1/DTD/svg11.dtd">
<svg width="100%" height="100%" viewBox="0 0 200 246" version="1.1" xmlns="http://www.w3.org/2000/svg" xmlns:xlink="http://www.w3.org/1999/xlink" xml:space="preserve" xmlns:serif="http://www.serif.com/" style="fill-rule:evenodd;clip-rule:evenodd;stroke-linejoin:round;stroke-miterlimit:2;">
    <g transform="matrix(4.166667,0,0,4.166667,0,0)">
        <g transform="matrix(0.564772,0,0,0.56266,50.722778,-610.665457)">
            <g transform="matrix(5.555556,0,0,5.555556,-108.9469,1181.733281)">
                <path d="M17.687,-7.917C18.118,-9.484 18.18,-12.915 18.18,-12.915L18.18,-14.896C18.18,-15.113 15.523,-16.053 15.523,-16.053C12.681,-17.039 9.506,-17.039 6.665,-16.053C6.665,-16.053 4.007,-15.113 4.007,-14.896L4.007,-12.915C4.007,-12.915 3.999,-9.481 4.43,-7.917C4.872,-6.308 5.514,-4.866 6.664,-3.257C7.814,-1.648 9.296,-0.208 11.094,0.958C12.891,-0.208 14.373,-1.648 15.523,-3.257C16.673,-4.866 17.244,-6.308 17.687,-7.917Z" style="fill:rgb(67,62,54);fill-rule:nonzero;"/>
            </g>
            <g transform="matrix(5.555556,0,0,5.555556,-108.9469,1181.733281)">
                <path d="M18.229,-7.768C17.769,-6.097 17.174,-4.601 15.981,-2.93C14.791,-1.266 13.259,0.224 11.4,1.43C11.213,1.55 10.974,1.55 10.788,1.43C8.928,0.224 7.396,-1.266 6.207,-2.93C5.013,-4.6 4.347,-6.097 3.887,-7.768C3.444,-9.379 3.444,-12.916 3.444,-12.915L3.444,-14.896L3.478,-15.093L3.57,-15.263C3.628,-15.341 3.782,-15.473 4.025,-15.599C4.726,-15.961 6.477,-16.583 6.477,-16.583L6.48,-16.584C9.44,-17.611 12.747,-17.611 15.707,-16.584L15.71,-16.583C15.71,-16.583 17.461,-15.961 18.162,-15.599C18.405,-15.473 18.559,-15.341 18.617,-15.263L18.709,-15.093L18.743,-14.896L18.743,-12.915L18.743,-12.905C18.743,-12.905 18.672,-9.378 18.229,-7.768ZM4.569,-14.59L4.569,-12.915L4.569,-12.914C4.569,-12.914 4.555,-9.583 4.972,-8.067C5.398,-6.518 6.016,-5.132 7.122,-3.584C8.166,-2.123 9.495,-0.806 11.094,0.282C12.693,-0.806 14.021,-2.123 15.065,-3.584C16.171,-5.131 16.719,-6.519 17.144,-8.067C17.554,-9.554 17.615,-12.772 17.618,-12.92L17.618,-14.59L15.335,-15.522C12.613,-16.466 9.574,-16.466 6.852,-15.522L4.569,-14.59Z" style="fill:rgb(242,242,242);"/>
            </g>
        </g>
    </g>
</svg>
