<?xml version="1.0" encoding="UTF-8" standalone="no"?>
<!DOCTYPE svg PUBLIC "-//W3C//DTD SVG 1.1//EN" "http://www.w3.org/Graphics/SVG/1.1/DTD/svg11.dtd">
<svg width="100%" height="100%" viewBox="0 0 200 246" version="1.1" xmlns="http://www.w3.org/2000/svg" xmlns:xlink="http://www.w3.org/1999/xlink" xml:space="preserve" xmlns:serif="http://www.serif.com/" style="fill-rule:evenodd;clip-rule:evenodd;stroke-linejoin:round;stroke-miterlimit:2;">
    <g transform="matrix(4.166667,0,0,4.166667,0,0)">
        <g transform="matrix(3.386673,0,0,3.323958,-13.570258,55.81718)">
            <path d="M17.687,-7.917C18.118,-9.484 18.18,-12.915 18.18,-12.915L18.18,-14.896C18.18,-15.113 15.523,-16.053 15.523,-16.053C12.681,-17.039 9.506,-17.039 6.665,-16.053C6.665,-16.053 4.007,-15.113 4.007,-14.896L4.007,-12.915C4.007,-12.915 3.999,-9.481 4.43,-7.917C4.872,-6.308 5.514,-4.866 6.664,-3.257C7.814,-1.648 9.296,-0.208 11.094,0.958C12.891,-0.208 14.373,-1.648 15.523,-3.257C16.673,-4.866 17.244,-6.308 17.687,-7.917Z" style="fill:rgb(67,62,54);fill-rule:nonzero;"/>
        </g>
    </g>
</svg>
